<svg xmlns="http://www.w3.org/2000/svg" version="1.1" xmlns:xlink="http://www.w3.org/1999/xlink" xmlns:svgjs="http://svgjs.dev/svgjs" width="2000" height="1247" viewBox="0 0 2000 1247"><g transform="matrix(1,0,0,1,-1.2121212121212466,0.504858299595071)"><svg viewBox="0 0 396 247" data-background-color="#636365" preserveAspectRatio="xMidYMid meet" height="1247" width="2000" xmlns="http://www.w3.org/2000/svg" xmlns:xlink="http://www.w3.org/1999/xlink"><g id="tight-bounds" transform="matrix(1,0,0,1,0.2400000000000091,-0.09999999999999432)"><svg viewBox="0 0 395.52 247.2" height="247.2" width="395.52"><g><svg></svg></g><g><svg viewBox="0 0 395.52 247.2" height="247.2" width="395.52"><g transform="matrix(1,0,0,1,134.26817579617835,47.215199999999996)"><svg viewBox="0 0 126.9836484076433 152.7696" height="152.7696" width="126.9836484076433"><g><svg viewBox="0 0 126.9836484076433 152.7696" height="152.7696" width="126.9836484076433"><g><svg viewBox="0 0 126.9836484076433 152.7696" height="152.7696" width="126.9836484076433"><g><svg viewBox="0 0 126.9836484076433 152.7696" height="152.7696" width="126.9836484076433"><g id="textblocktransform"><svg viewBox="0 0 126.9836484076433 152.7696" height="152.7696" width="126.9836484076433" id="textblock"><g><svg viewBox="0 0 126.9836484076433 152.7696" height="152.7696" width="126.9836484076433"><g transform="matrix(1,0,0,1,0,0)"><svg width="126.9836484076433" viewBox="1.3 -31.4 26.099999999999998 31.4" height="152.7696" data-palette-color="#ffffff"><path d="M5.4 0L1.3 0 12.1-31.4 16.85-31.4 27.4 0 23.3 0 20.65-8.05 8.15-8.05 5.4 0ZM14.4-26.65L9.15-11.1 19.65-11.1 14.4-26.65Z" opacity="1" transform="matrix(1,0,0,1,0,0)" fill="#ffffff" class="wordmark-text-0" data-fill-palette-color="primary" id="text-0"></path></svg></g></svg></g></svg></g></svg></g></svg></g></svg></g></svg></g><path d="M316.569 41.215L316.569 0 69.369 0 69.369 247.2 316.569 247.2 316.569 205.985 302.793 205.985 302.793 233.423 83.146 233.423 83.146 13.777 302.793 13.777 302.793 41.215Z" fill="#ffffff" stroke="transparent" data-fill-palette-color="tertiary"></path></svg></g><defs></defs></svg><rect width="395.52" height="247.2" fill="none" stroke="none" visibility="hidden"></rect></g></svg></g></svg>